cl__1 = 0.005;
cl__2 = 0.002;
Point(1) = {0, 0, 0, 0.005};
Point(2) = {0, 0.2, 0, 0.005};
Point(3) = {0.2, 0.2, 0, 0.005};
Point(4) = {0.2, 0, 0, 0.005};
Point(5) = {0.1, 0.1, 0, 0.005};
Point(6) = {0.1, 0.115, 0, 0.002};
Point(7) = {0.1, 0.08500000000000001, 0, 0.002};
Point(8) = {0.147, 0.05300000000000001, 0, 0.005};
Point(9) = {0.147, 0.068, 0, 0.002};
Point(10) = {0.147, 0.03800000000000001, 0, 0.002};
Point(11) = {0.05300000000000001, 0.147, 0, 0.005};
Point(12) = {0.05300000000000001, 0.162, 0, 0.002};
Point(13) = {0.05300000000000001, 0.132, 0, 0.002};
Point(14) = {0.147, 0.147, 0, 0.005};
Point(15) = {0.147, 0.162, 0, 0.002};
Point(16) = {0.147, 0.132, 0, 0.002};
Point(17) = {0.05300000000000001, 0.05300000000000001, 0, 0.005};
Point(18) = {0.05300000000000001, 0.068, 0, 0.002};
Point(19) = {0.05300000000000001, 0.03800000000000001, 0, 0.002};
Point(21) = {0, 0, 0.1, 0.005};
Point(22) = {0, 0.2, 0.1, 0.005};
Point(23) = {0.2, 0.2, 0.1, 0.005};
Point(24) = {0.2, 0, 0.1, 0.005};
Point(25) = {0.1, 0.1, 0.1, 0.005};
Point(26) = {0.1, 0.115, 0.1, 0.002};
Point(27) = {0.1, 0.08500000000000001, 0.1, 0.002};
Point(28) = {0.147, 0.05300000000000001, 0.1, 0.005};
Point(29) = {0.147, 0.068, 0.1, 0.002};
Point(30) = {0.147, 0.03800000000000001, 0.1, 0.002};
Point(31) = {0.05300000000000001, 0.147, 0.1, 0.005};
Point(32) = {0.05300000000000001, 0.162, 0.1, 0.002};
Point(33) = {0.05300000000000001, 0.132, 0.1, 0.002};
Point(34) = {0.147, 0.147, 0.1, 0.005};
Point(35) = {0.147, 0.162, 0.1, 0.002};
Point(36) = {0.147, 0.132, 0.1, 0.002};
Point(37) = {0.05300000000000001, 0.05300000000000001, 0.1, 0.005};
Point(38) = {0.05300000000000001, 0.068, 0.1, 0.002};
Point(39) = {0.05300000000000001, 0.03800000000000001, 0.1, 0.002};
Line(1) = {1, 2};
Line(2) = {2, 3};
Line(3) = {3, 4};
Line(4) = {4, 1};
Line(5) = {1, 21};
Line(6) = {2, 22};
Line(7) = {3, 23};
Line(8) = {4, 24};
Line(9) = {21, 22};
Line(10) = {22, 23};
Line(11) = {23, 24};
Line(12) = {24, 21};
Line(13) = {5, 6};
Line(14) = {5, 7};
Line(15) = {8, 9};
Line(16) = {8, 10};
Line(17) = {11, 12};
Line(18) = {11, 13};
Line(19) = {14, 15};
Line(20) = {14, 16};
Line(21) = {17, 18};
Line(22) = {17, 19};
Line(23) = {25, 26};
Line(24) = {25, 27};
Line(25) = {28, 29};
Line(26) = {28, 30};
Line(27) = {31, 32};
Line(28) = {31, 33};
Line(29) = {34, 35};
Line(30) = {34, 36};
Line(31) = {37, 38};
Line(32) = {37, 39};
Line(33) = {6, 26};
Line(34) = {7, 27};
Line(35) = {9, 29};
Line(36) = {10, 30};
Line(37) = {12, 32};
Line(38) = {13, 33};
Line(39) = {15, 35};
Line(40) = {16, 36};
Line(41) = {18, 38};
Line(42) = {19, 39};
Circle(43) = {6, 5, 7};
Circle(44) = {7, 5, 6};
Circle(45) = {9, 8, 10};
Circle(46) = {10, 8, 9};
Circle(47) = {12, 11, 13};
Circle(48) = {13, 11, 12};
Circle(49) = {15, 14, 16};
Circle(50) = {16, 14, 15};
Circle(51) = {18, 17, 19};
Circle(52) = {19, 17, 18};
Circle(53) = {26, 25, 27};
Circle(54) = {27, 25, 26};
Circle(55) = {29, 28, 30};
Circle(56) = {30, 28, 29};
Circle(57) = {32, 31, 33};
Circle(58) = {33, 31, 32};
Circle(59) = {35, 34, 36};
Circle(60) = {36, 34, 35};
Circle(61) = {38, 37, 39};
Circle(62) = {39, 37, 38};
Line Loop(200) = {1, 6, -9, -5};
Plane Surface(200) = {200};
Line Loop(201) = {2, 7, -10, -6};
Plane Surface(201) = {201};
Line Loop(202) = {3, 8, -11, -7};
Plane Surface(202) = {202};
Line Loop(203) = {4, 5, -12, -8};
Plane Surface(203) = {203};
Line Loop(204) = {13, 43, -14};
Plane Surface(204) = {204};
Line Loop(205) = {14, 44, -13};
Plane Surface(205) = {205};
Line Loop(206) = {23, 53, -24};
Plane Surface(206) = {206};
Line Loop(207) = {24, 54, -23};
Plane Surface(207) = {207};
Line Loop(208) = {13, 33, -23, 24, -34, -14};
Plane Surface(208) = {208};
Line Loop(209) = {43, 34, -53, -33};
Ruled Surface(209) = {209};
Line Loop(210) = {44, 33, -54, -34};
Ruled Surface(210) = {210};
Line Loop(211) = {15, 45, -16};
Plane Surface(211) = {211};
Line Loop(212) = {16, 46, -15};
Plane Surface(212) = {212};
Line Loop(213) = {25, 55, -26};
Plane Surface(213) = {213};
Line Loop(214) = {26, 56, -25};
Plane Surface(214) = {214};
Line Loop(215) = {15, 35, -25, 26, -36, -16};
Plane Surface(215) = {215};
Line Loop(216) = {45, 36, -55, -35};
Ruled Surface(216) = {216};
Line Loop(217) = {46, 35, -56, -36};
Ruled Surface(217) = {217};
Line Loop(218) = {17, 47, -18};
Plane Surface(218) = {218};
Line Loop(219) = {18, 48, -17};
Plane Surface(219) = {219};
Line Loop(220) = {27, 57, -28};
Plane Surface(220) = {220};
Line Loop(221) = {28, 58, -27};
Plane Surface(221) = {221};
Line Loop(222) = {17, 37, -27, 28, -38, -18};
Plane Surface(222) = {222};
Line Loop(223) = {47, 38, -57, -37};
Ruled Surface(223) = {223};
Line Loop(224) = {48, 37, -58, -38};
Ruled Surface(224) = {224};
Line Loop(225) = {19, 49, -20};
Plane Surface(225) = {225};
Line Loop(226) = {20, 50, -19};
Plane Surface(226) = {226};
Line Loop(227) = {29, 59, -30};
Plane Surface(227) = {227};
Line Loop(228) = {30, 60, -29};
Plane Surface(228) = {228};
Line Loop(229) = {19, 39, -29, 30, -40, -20};
Plane Surface(229) = {229};
Line Loop(230) = {49, 40, -59, -39};
Ruled Surface(230) = {230};
Line Loop(231) = {50, 39, -60, -40};
Ruled Surface(231) = {231};
Line Loop(232) = {21, 51, -22};
Plane Surface(232) = {232};
Line Loop(233) = {22, 52, -21};
Plane Surface(233) = {233};
Line Loop(234) = {31, 61, -32};
Plane Surface(234) = {234};
Line Loop(235) = {32, 62, -31};
Plane Surface(235) = {235};
Line Loop(236) = {21, 41, -31, 32, -42, -22};
Plane Surface(236) = {236};
Line Loop(237) = {51, 42, -61, -41};
Ruled Surface(237) = {237};
Line Loop(238) = {52, 41, -62, -42};
Ruled Surface(238) = {238};
Line Loop(239) = {1, 2, 3, 4, -44, -43, -46, -45, -48, -47, -50, -49, -52, -51};
Plane Surface(239) = {239};
Line Loop(240) = {9, 10, 11, 12, -54, -53, -56, -55, -58, -57, -60, -59, -62, -61};
Plane Surface(240) = {240};
Surface Loop(302) = {239, 200, 201, 202, 203, 240, 237, 238, 216, 217, 209, 210, 230, 231, 224, 223};
Volume(302) = {302};
